# xmcd
#
# Track frame offsets:
#	150
#	19603
#	33537
#	47696
#	66672
#	82249
#	93160
#	103236
#	116522
#	131416
#	145558
#	159589
#	169721
#	180372
#	190250
#	200401
#	213281
#
# Disc length: 2995 seconds
# Revision: 1
# Processed by: cddbd v1.5.2PL0 Copyright (c) Steve Scherf et al.
# Submitted via: dBpowerAMP V12.0
#
DISCID=e90bb111
DTITLE=Don Costa - For The Good Times
DYEAR=1900
DGENRE=Country
TTITLE0=Friends in Low Places
TTITLE1=Heartaches by The Number
TTITLE2=Boot Scootin Boogie
TTITLE3=Working For The Man
TTITLE4=Beautiful Body
TTITLE5=Hey Good Lokkin
TTITLE6=Corrine Corrina
TTITLE7=Lights on The Hill
TTITLE8=Outback Club
TTITLE9=For The Good Times
TTITLE10=Tie a Yellow Ribbon
TTITLE11=Labamba
TTITLE12=Under The Boardwalk
TTITLE13=Jambaylaya
TTITLE14=Splish Splash
TTITLE15=Your Mama Don't Dance 
TTITLE16=Shame and Scandal
EXTD=
EXTT0=
EXTT1=
EXTT2=
EXTT3=
EXTT4=
EXTT5=
EXTT6=
EXTT7=
EXTT8=
EXTT9=
EXTT10=
EXTT11=
EXTT12=
EXTT13=
EXTT14=
EXTT15=
EXTT16=
PLAYORDER=
